<svg aria-label="LNGVTY" class="lngvty-mark" xmlns="http://www.w3.org/2000/svg" viewBox="0 0 1000 200"><path d="M99.22,51.22h9.11v89.37h45.45v8.29h-54.56v-97.67Z"></path><path d="M226.33,51.22h11.68l59.47,85.52h.23v-85.52h9.11v97.55h-11.68l-59.47-85.4h-.23v85.52h-9.11v-97.67h0Z"></path><path d="M463.14,104.61v32.6c-3.74,2.22-7.94,3.74-12.5,4.56-4.56.82-9.46,1.29-14.72,1.29s-12.03-1.05-17.17-3.27c-5.14-2.22-9.46-5.26-12.97-9.11-3.62-3.86-6.31-8.41-8.29-13.67-1.87-5.26-2.92-10.87-2.92-16.94s.93-11.68,2.92-16.94c1.99-5.26,4.67-9.81,8.29-13.67,3.62-3.86,7.94-6.89,12.97-9.11s10.87-3.27,17.17-3.27,5.37.35,8.18.93c2.8.58,5.37,1.4,7.94,2.45,2.57,1.05,4.91,2.34,7.01,3.86s3.97,3.15,5.49,4.91l6.66-6.89c-9.11-9-20.8-13.55-35.4-13.55s-14.25,1.29-20.45,3.86c-6.19,2.57-11.57,6.19-15.89,10.63-4.44,4.56-7.83,9.93-10.4,16.24-2.45,6.31-3.74,13.08-3.74,20.56s1.29,14.25,3.74,20.56c2.45,6.31,5.96,11.68,10.4,16.24,4.44,4.56,9.7,8.06,15.89,10.63,6.19,2.57,12.97,3.74,20.45,3.74s12.62-.7,18.69-1.99,12.03-3.62,17.76-6.78v-37.85h-9.11Z"></path><path d="M543.4,51.22h9.81l31.43,85.64,31.66-85.64h9.7l-37.03,97.55h-9.11l-36.45-97.55Z"></path><path d="M718.76,59.52h-33.41v-8.29h75.82v8.29h-33.41v89.37h-9.11v-89.37h.12Z"></path><path d="M856.04,106.83l-35.87-55.49h10.87l29.44,46.38,30.14-46.38h10.16l-35.87,55.49v42.06h-9.11v-42.06h.23Z"></path></svg>